<svg xmlns="http://www.w3.org/2000/svg" xmlns:xlink="http://www.w3.org/1999/xlink" width="1920" zoomAndPan="magnify" viewBox="0 0 1440 809.999993" height="1080" preserveAspectRatio="xMidYMid meet" version="1.0"><defs><clipPath id="376741e16e"><path d="M 420 422 L 1428 422 L 1428 675.601562 L 420 675.601562 Z M 420 422 " clip-rule="nonzero"/></clipPath></defs><path fill="#b68461" d="M 41.488281 269.824219 C 41.070312 261.28125 40.550781 252.738281 40.027344 244.195312 C 53.164062 240.964844 66.089844 236.382812 79.015625 232.421875 C 90.691406 228.878906 102.367188 225.546875 113.9375 221.898438 C 114.039062 230.652344 114.355469 239.402344 114.980469 248.15625 C 115.605469 257.738281 116.648438 267.324219 117.375 277.015625 C 117.6875 281.808594 118.105469 286.597656 118.417969 291.390625 C 118.523438 292.121094 118.523438 292.953125 118.628906 293.683594 C 117.585938 293.058594 116.4375 292.433594 115.1875 292.015625 C 114.039062 291.601562 112.894531 291.289062 111.746094 290.976562 C 107.265625 289.933594 102.574219 289.828125 97.988281 290.664062 C 94.128906 291.390625 90.378906 292.851562 87.355469 295.453125 C 81.828125 300.246094 81.515625 307.4375 87.144531 312.230469 C 93.816406 317.855469 103.617188 316.707031 111.332031 314.3125 C 116.542969 312.644531 122.691406 309.3125 123.734375 304.207031 C 124.046875 304 124.257812 303.6875 124.464844 303.269531 C 126.027344 299.101562 125.195312 294.726562 124.882812 290.453125 C 124.570312 285.660156 124.257812 280.867188 124.046875 276.078125 C 123.527344 266.492188 123.734375 256.90625 123.527344 247.21875 C 123.214844 227.941406 122.484375 208.773438 122.589844 189.5 C 122.589844 188.558594 122.277344 187.726562 121.859375 187.101562 C 122.484375 184.289062 120.503906 180.953125 116.960938 182.101562 C 89.441406 191.0625 62.234375 200.4375 35.441406 211.480469 C 34.085938 211.378906 32.628906 212.210938 32.628906 213.980469 C 32.417969 232.945312 32.105469 251.90625 32.941406 270.761719 C 33.359375 280.347656 33.773438 290.039062 34.191406 299.621094 C 34.398438 304.625 34.296875 310.039062 34.609375 315.25 C 34.296875 315.144531 33.984375 315.042969 33.671875 314.832031 C 32.523438 314.417969 31.375 314.105469 30.230469 313.792969 C 25.746094 312.75 21.058594 312.644531 16.46875 313.480469 C 12.613281 314.207031 8.859375 315.667969 5.835938 318.273438 C 0.3125 323.0625 0 330.253906 5.628906 335.046875 C 12.300781 340.671875 22.097656 339.527344 29.8125 337.128906 C 34.398438 335.773438 39.507812 332.960938 41.59375 329.003906 C 42.84375 328.378906 43.78125 327.230469 43.988281 325.566406 C 45.03125 316.917969 43.15625 307.332031 42.738281 298.683594 C 42.425781 289.101562 42.007812 279.410156 41.488281 269.824219 Z M 75.679688 223.878906 C 63.484375 227.734375 51.183594 231.589844 39.613281 236.902344 C 39.195312 230.339844 38.777344 223.878906 38.359375 217.316406 C 63.796875 209.398438 88.917969 200.644531 114.039062 191.789062 C 113.9375 199.082031 113.9375 206.273438 113.9375 213.566406 C 101.011719 216.273438 88.292969 219.921875 75.679688 223.878906 Z M 75.679688 223.878906 " fill-opacity="1" fill-rule="nonzero"/><path fill="#b68461" d="M 260.8125 228.359375 C 265.921875 226.796875 268.734375 220.234375 267.066406 215.441406 C 266.964844 215.128906 266.859375 214.710938 266.652344 214.398438 C 263.628906 208.25 252.578125 206.273438 248.722656 212.628906 C 247.679688 214.292969 247.46875 216.378906 247.886719 218.253906 C 249.136719 223.566406 254.769531 230.128906 260.8125 228.359375 Z M 260.8125 228.359375 " fill-opacity="1" fill-rule="nonzero"/><path fill="#b68461" d="M 1058.683594 506.429688 C 1057.640625 508.097656 1057.429688 510.183594 1057.847656 512.058594 C 1058.996094 517.371094 1064.726562 523.933594 1070.671875 522.164062 C 1075.777344 520.601562 1078.59375 514.035156 1076.925781 509.242188 C 1076.820312 508.929688 1076.714844 508.515625 1076.507812 508.203125 C 1073.589844 502.054688 1062.539062 500.179688 1058.683594 506.429688 Z M 1058.683594 506.429688 " fill-opacity="1" fill-rule="nonzero"/><path fill="#b68461" d="M 768.472656 270.035156 C 773.582031 268.472656 776.394531 261.90625 774.726562 257.113281 C 774.621094 256.800781 774.519531 256.386719 774.308594 256.074219 C 771.285156 249.925781 760.238281 247.945312 756.378906 254.300781 C 755.339844 255.96875 755.128906 258.050781 755.546875 259.925781 C 756.796875 265.242188 762.425781 271.804688 768.472656 270.035156 Z M 768.472656 270.035156 " fill-opacity="1" fill-rule="nonzero"/><path fill="#b68461" d="M 228.1875 541.542969 C 225.164062 535.394531 214.113281 533.414062 210.257812 539.769531 C 209.214844 541.4375 209.003906 543.519531 209.421875 545.398438 C 210.570312 550.710938 216.300781 557.273438 222.242188 555.503906 C 227.351562 553.941406 230.167969 547.375 228.5 542.582031 C 228.394531 542.269531 228.289062 541.855469 228.1875 541.542969 Z M 228.1875 541.542969 " fill-opacity="1" fill-rule="nonzero"/><path fill="#b68461" d="M 1102.046875 185.644531 C 1107.15625 184.082031 1109.96875 177.515625 1108.300781 172.722656 C 1108.199219 172.410156 1108.09375 171.996094 1107.882812 171.683594 C 1104.863281 165.535156 1093.8125 163.554688 1089.953125 169.910156 C 1088.914062 171.578125 1088.703125 173.660156 1089.121094 175.539062 C 1090.371094 180.851562 1096 187.414062 1102.046875 185.644531 Z M 1102.046875 185.644531 " fill-opacity="1" fill-rule="nonzero"/><path fill="#b68461" d="M 403.625 338.484375 C 392.679688 332.960938 381.109375 332.753906 370.269531 336.085938 C 369.957031 334.316406 369.640625 332.648438 369.328125 330.878906 C 440.632812 318.0625 513.808594 315.5625 585.945312 322.542969 C 585.214844 331.503906 584.695312 340.152344 584.171875 347.546875 C 575.519531 343.277344 565.511719 341.816406 555.921875 343.902344 C 546.855469 345.882812 535.074219 353.695312 539.660156 364.53125 C 543.414062 373.488281 555.402344 373.386719 563.324219 371.613281 C 572.289062 369.636719 583.234375 365.46875 589.800781 358.488281 C 591.050781 357.964844 591.992188 357.027344 592.304688 355.570312 C 594.179688 347.132812 595.640625 335.878906 596.890625 323.792969 C 606.167969 324.835938 615.445312 325.980469 624.722656 327.335938 C 698.839844 338.066406 770.660156 359.214844 842.066406 381.304688 C 841.859375 396.097656 841.964844 410.996094 843.109375 425.792969 C 843.632812 432.875 844.257812 439.960938 844.882812 447.148438 C 845.195312 451.210938 845.195312 455.589844 845.507812 459.964844 C 845.195312 459.859375 844.988281 459.753906 844.671875 459.652344 C 843.527344 459.234375 842.378906 458.921875 841.234375 458.609375 C 836.75 457.566406 832.058594 457.464844 827.472656 458.296875 C 823.617188 459.027344 819.863281 460.484375 816.839844 463.089844 C 811.316406 467.882812 811.003906 475.070312 816.632812 479.863281 C 823.304688 485.488281 833.101562 484.34375 840.816406 481.949219 C 845.195312 480.59375 850.199219 477.988281 852.386719 474.132812 C 853.636719 473.820312 854.578125 472.988281 854.785156 471.425781 C 855.828125 463.921875 854.160156 455.691406 853.535156 448.085938 C 852.910156 440.691406 852.179688 433.292969 851.554688 425.792969 C 851.03125 419.332031 850.300781 412.871094 849.675781 406.515625 C 860.726562 402.558594 871.566406 398.285156 882.511719 393.910156 C 889.808594 396.203125 897.105469 398.390625 904.402344 400.683594 C 905.03125 404.433594 905.65625 408.289062 906.070312 412.039062 C 906.488281 415.371094 906.699219 418.707031 907.011719 421.9375 C 907.011719 421.9375 907.011719 422.039062 907.011719 422.039062 C 905.96875 421.414062 904.820312 420.789062 903.675781 420.375 C 902.527344 419.957031 901.382812 419.644531 900.234375 419.332031 C 895.753906 418.289062 891.0625 418.1875 886.472656 419.019531 C 882.617188 419.75 878.863281 421.207031 875.84375 423.8125 C 870.316406 428.605469 870.003906 435.792969 875.632812 440.585938 C 882.304688 446.210938 892.105469 445.066406 899.816406 442.667969 C 903.152344 441.628906 906.800781 439.960938 909.304688 437.460938 C 910.761719 436.105469 911.804688 434.4375 912.222656 432.5625 C 912.429688 432.460938 912.640625 432.25 912.742188 432.042969 C 914.828125 428.917969 913.785156 424.855469 913.578125 421.207031 C 913.367188 418.082031 913.054688 414.957031 912.953125 411.832031 C 912.742188 408.914062 912.742188 405.890625 912.535156 402.976562 C 925.355469 406.828125 938.28125 410.683594 951.3125 414.332031 C 950.167969 414.433594 948.914062 414.539062 947.769531 414.851562 C 943.910156 415.582031 940.160156 417.039062 937.136719 419.644531 C 931.613281 424.4375 931.296875 431.625 936.925781 436.417969 C 943.597656 442.042969 953.398438 440.898438 961.113281 438.503906 C 964.449219 437.460938 968.097656 435.792969 970.597656 433.292969 C 972.058594 431.9375 973.101562 430.269531 973.515625 428.5 C 973.726562 428.394531 973.933594 428.1875 974.039062 427.875 C 974.976562 425.894531 975.289062 423.5 975.394531 421 C 1042.941406 439.023438 1111.847656 452.359375 1181.6875 452.878906 C 1185.441406 459.757812 1189.296875 466.632812 1193.363281 473.300781 C 1183.773438 474.757812 1174.808594 479.34375 1168.136719 486.53125 C 1161.882812 493.40625 1156.773438 506.535156 1166.78125 512.785156 C 1175.015625 517.890625 1184.816406 510.910156 1190.234375 504.972656 C 1196.386719 498.199219 1202.953125 488.511719 1204.203125 478.925781 C 1204.933594 477.78125 1205.140625 476.425781 1204.621094 475.070312 C 1201.492188 467.464844 1197.949219 460.070312 1194.300781 452.777344 C 1238.082031 452.148438 1283.429688 447.148438 1325.125 433.8125 C 1329.503906 432.460938 1333.882812 430.894531 1338.257812 429.332031 C 1340.03125 432.355469 1341.90625 435.375 1343.679688 438.503906 C 1353.167969 454.546875 1362.964844 470.382812 1372.761719 486.21875 C 1373.910156 488.09375 1375.890625 488.40625 1377.558594 487.78125 C 1386.316406 491.324219 1396.84375 487.886719 1404.246094 481.84375 C 1413.210938 474.445312 1415.292969 459.339844 1403.097656 453.816406 C 1393.714844 449.648438 1379.226562 452.566406 1370.886719 457.984375 C 1369.53125 458.816406 1368.386719 459.859375 1367.550781 460.902344 C 1362.234375 451.523438 1356.917969 442.253906 1351.394531 432.980469 C 1350.039062 430.582031 1348.578125 428.1875 1347.222656 425.792969 C 1373.285156 415.269531 1398.824219 400.160156 1414.667969 377.34375 C 1419.359375 370.574219 1422.800781 362.96875 1424.675781 354.945312 C 1426.65625 346.195312 1413.210938 342.339844 1411.125 351.195312 C 1403.410156 382.867188 1367.96875 401.203125 1339.09375 412.144531 C 1338.46875 411.101562 1337.738281 410.058594 1337.113281 409.015625 C 1332.839844 402.347656 1328.460938 393.492188 1321.683594 389.015625 C 1319.808594 387.761719 1316.578125 389.742188 1317.515625 392.140625 C 1320.539062 400.058594 1326.375 407.558594 1330.441406 415.058594 C 1330.441406 415.164062 1330.546875 415.164062 1330.546875 415.269531 C 1289.996094 429.332031 1245.691406 434.542969 1203.058594 435.585938 C 1197.21875 435.6875 1191.382812 435.792969 1185.542969 435.6875 C 1181.269531 427.980469 1176.890625 420.269531 1172.515625 412.664062 C 1164.277344 398.390625 1155.835938 384.222656 1147.183594 370.15625 C 1158.441406 374.429688 1171.890625 374.113281 1183.667969 376.929688 C 1193.152344 379.21875 1200.972656 384.636719 1206.808594 392.453125 C 1209.519531 396.097656 1211.710938 400.058594 1213.480469 404.226562 C 1215.359375 408.601562 1216.085938 413.082031 1219.839844 416.308594 C 1221.613281 417.875 1224.84375 416.726562 1225.574219 414.539062 C 1228.386719 406.414062 1220.988281 395.785156 1216.503906 389.429688 C 1211.1875 381.929688 1203.890625 375.574219 1195.550781 371.613281 C 1177.726562 363.382812 1151.351562 371.199219 1138.113281 354.113281 C 1137.59375 353.382812 1136.96875 353.070312 1136.34375 352.859375 C 1133.945312 350.046875 1128.316406 353.589844 1130.296875 357.132812 C 1141.660156 377.554688 1152.8125 398.078125 1163.863281 418.707031 C 1166.886719 424.230469 1169.804688 429.75 1172.722656 435.375 C 1105.175781 433.292969 1038.875 419.125 973.828125 401.097656 C 973.410156 394.742188 973.203125 388.285156 972.890625 381.929688 C 972.160156 365.988281 971.117188 350.152344 971.117188 334.210938 C 971.117188 333.273438 970.804688 332.441406 970.390625 331.816406 C 971.015625 329.003906 969.035156 325.667969 965.488281 326.816406 C 931.089844 338.273438 898.359375 354.007812 865 368.28125 C 792.34375 345.566406 719.476562 323.167969 644.320312 310.875 C 629.101562 308.375 613.777344 306.289062 598.558594 304.625 C 599.808594 289.726562 600.746094 275.242188 601.789062 264.929688 C 603.351562 248.46875 604.601562 232.109375 605.644531 215.648438 C 612.421875 225.652344 623.574219 233.152344 631.601562 242.214844 C 638.066406 249.507812 641.296875 258.46875 641.503906 268.261719 C 641.609375 272.847656 641.089844 277.328125 640.148438 281.808594 C 639.109375 286.390625 637.125 290.558594 638.378906 295.351562 C 639.003906 297.644531 642.234375 298.582031 644.007812 297.226562 C 650.992188 292.226562 651.09375 279.304688 651.09375 271.492188 C 651.09375 262.21875 648.90625 252.84375 644.214844 244.820312 C 634.417969 227.839844 608.355469 218.984375 607.417969 197.417969 C 607.417969 196.582031 607.105469 195.851562 606.6875 195.332031 C 606.375 191.582031 599.703125 191.375 599.289062 195.332031 C 596.785156 218.566406 593.972656 241.800781 591.15625 265.03125 C 589.90625 275.035156 588.550781 289.101562 587.402344 303.582031 C 513.703125 296.496094 439.277344 298.789062 366.203125 311.707031 C 365.054688 304 364.011719 296.183594 363.074219 288.371094 C 371.726562 279.410156 379.859375 270.035156 384.757812 258.46875 C 389.761719 246.800781 392.367188 229.296875 384.445312 218.253906 C 376 206.375 359.21875 210.023438 351.710938 220.859375 C 342.957031 233.464844 345.980469 252.425781 346.8125 266.804688 C 347.230469 273.472656 347.75 280.140625 348.480469 286.808594 C 342.019531 293.164062 335.449219 299.519531 329.507812 306.394531 C 325.234375 311.394531 321.167969 316.605469 317.417969 322.125 C 240.589844 340.984375 166.785156 372.136719 100.070312 414.746094 C 89.855469 421.3125 80.683594 427.980469 71.824219 436.210938 C 65.046875 442.566406 73.699219 452.671875 81.414062 448.609375 C 102.992188 437.460938 122.902344 423.082031 144.167969 411.101562 C 164.804688 399.433594 186.070312 388.910156 207.753906 379.429688 C 239.027344 365.78125 271.339844 354.527344 304.386719 345.464844 C 296.777344 362.757812 293.128906 381.410156 295.941406 400.785156 C 300.53125 433.292969 325.339844 458.191406 358.175781 461.945312 C 363.179688 462.570312 368.183594 462.464844 373.082031 461.945312 C 372.351562 469.652344 370.683594 477.363281 367.347656 484.761719 C 363.386719 493.71875 355.464844 500.910156 346.292969 504.453125 C 347.855469 500.492188 347.960938 495.699219 345.667969 492.367188 C 344.207031 489.449219 341.808594 487.050781 338.683594 485.59375 C 324.921875 479.550781 312.203125 498.097656 322.734375 508.722656 C 325.234375 511.222656 328.464844 512.785156 331.800781 513.203125 C 331.800781 513.308594 331.90625 513.308594 331.90625 513.410156 C 344.625 515.078125 356.820312 510.078125 366.203125 501.011719 C 377.980469 489.65625 383.609375 475.28125 385.175781 459.445312 C 405.085938 453.402344 421.554688 438.398438 429.582031 418.082031 C 440.945312 389.742188 432.605469 352.863281 403.625 338.484375 Z M 923.167969 386.304688 C 919.207031 385.054688 915.140625 383.910156 911.179688 382.660156 C 911.179688 382.554688 911.179688 382.347656 911.074219 382.242188 C 928.066406 375.367188 945.265625 368.386719 962.988281 363.28125 C 963.195312 369.53125 963.71875 375.78125 964.449219 382.035156 C 965.074219 387.761719 966.011719 393.492188 966.742188 399.121094 C 952.148438 395.054688 937.554688 390.785156 923.167969 386.304688 Z M 333.886719 499.035156 C 333.886719 499.035156 333.886719 499.136719 333.886719 499.136719 C 333.886719 499.136719 333.78125 499.242188 333.679688 499.242188 C 333.679688 499.136719 333.78125 499.035156 333.886719 499.035156 Z M 333.679688 499.347656 Z M 367.246094 226.066406 C 376 221.378906 378.503906 233.671875 378.085938 240.132812 C 377.460938 249.613281 373.289062 258.261719 367.660156 265.761719 C 365.785156 268.261719 363.804688 270.660156 361.824219 273.054688 C 361.199219 264.71875 360.675781 256.28125 360.574219 247.84375 C 360.46875 240.863281 359.949219 229.921875 367.246094 226.066406 Z M 350.460938 301.601562 C 350.984375 305.875 351.609375 310.144531 352.234375 314.417969 C 347.023438 315.457031 341.707031 316.5 336.492188 317.648438 C 340.871094 312.125 345.5625 306.707031 350.460938 301.601562 Z M 313.457031 413.707031 C 303.449219 389.847656 308.871094 363.488281 320.648438 341.296875 C 327.945312 339.421875 335.347656 337.753906 342.746094 336.085938 C 346.917969 335.148438 351.085938 334.316406 355.257812 333.484375 C 355.777344 336.398438 356.195312 339.316406 356.714844 342.234375 C 344.625 349.734375 334.617188 361.300781 329.300781 373.90625 C 323.359375 388.074219 322.210938 411.308594 341.394531 415.582031 C 349.730469 417.457031 358.488281 412.664062 361.40625 404.640625 C 364.011719 397.140625 360.15625 388.910156 352.652344 386.304688 C 348.898438 384.949219 345.144531 385.160156 341.808594 386.511719 C 342.746094 382.449219 344.625 378.386719 346.292969 375.15625 C 349.523438 369.011719 354.109375 363.382812 359.636719 359.007812 C 363.910156 382.972656 368.496094 406.828125 371.832031 430.894531 C 372.664062 436.625 373.289062 442.460938 373.5 448.191406 C 348.273438 451.316406 323.359375 437.355469 313.457031 413.707031 Z M 421.449219 393.910156 C 420.722656 415.996094 406.441406 437.042969 385.902344 445.066406 C 385.695312 428.707031 383.089844 412.351562 380.585938 396.410156 C 378.292969 381.410156 375.6875 366.40625 372.976562 351.402344 C 373.289062 351.296875 373.605469 351.195312 373.917969 351.089844 C 400.8125 342.128906 422.179688 368.90625 421.449219 393.910156 Z M 421.449219 393.910156 " fill-opacity="1" fill-rule="nonzero"/><path fill="#b68461" d="M 1418.421875 193.351562 C 1408.9375 213.460938 1395.59375 230.234375 1377.246094 242.527344 C 1358.167969 255.238281 1336.800781 262.84375 1314.492188 267.949219 C 1267.894531 278.679688 1218.695312 278.160156 1171.265625 274.097656 C 1102.253906 268.054688 1034.707031 250.863281 968.511719 231.171875 C 943.703125 223.773438 919 216.167969 894.1875 208.667969 C 902.320312 193.457031 910.242188 178.039062 918.164062 162.722656 C 919.207031 160.742188 918.476562 158.867188 917.121094 157.824219 C 915.664062 148.449219 907.21875 141.261719 898.253906 138.132812 C 887.308594 134.28125 873.234375 140.324219 874.902344 153.554688 C 876.15625 163.660156 886.160156 174.597656 895.125 178.976562 C 896.585938 179.703125 898.046875 180.121094 899.402344 180.328125 C 894.605469 188.871094 889.914062 197.417969 885.222656 205.960938 C 846.339844 194.1875 807.460938 182.832031 768.160156 173.246094 C 697.273438 155.847656 623.992188 146.78125 551.335938 157.929688 C 542.476562 159.285156 533.71875 160.953125 525.066406 162.929688 C 516.9375 164.703125 520.375 176.890625 528.507812 175.328125 C 601.164062 160.429688 676.53125 167.621094 748.144531 185.121094 C 791.40625 195.75 833.832031 209.085938 876.15625 222.523438 C 874.277344 226.066406 872.507812 229.609375 870.734375 233.152344 C 867.191406 240.238281 861.875 248.570312 861.5625 256.699219 C 861.457031 258.988281 864.894531 260.65625 866.355469 258.675781 C 871.566406 252.007812 875.007812 243.152344 879.28125 235.757812 C 881.261719 232.320312 883.242188 228.878906 885.121094 225.441406 C 906.90625 232.421875 928.691406 239.402344 950.582031 245.96875 C 1018.132812 266.492188 1086.621094 284.515625 1156.984375 292.328125 C 1207.226562 297.851562 1259.035156 298.789062 1308.863281 289.414062 C 1355.25 280.660156 1402.679688 260.03125 1427.90625 218.148438 C 1431.242188 212.628906 1433.746094 206.898438 1436.039062 200.855469 C 1440 190.644531 1423.113281 183.457031 1418.421875 193.351562 Z M 1418.421875 193.351562 " fill-opacity="1" fill-rule="nonzero"/><g clip-path="url(#376741e16e)"><path fill="#b68461" d="M 1413.625 560.816406 C 1398.40625 568.628906 1383.605469 577.070312 1367.863281 583.945312 C 1352.539062 590.613281 1336.488281 595.71875 1320.328125 599.78125 C 1307.820312 602.90625 1295.3125 605.304688 1282.59375 607.179688 C 1286.972656 591.03125 1291.039062 574.882812 1295.730469 558.835938 C 1296.042969 557.898438 1295.9375 557.066406 1295.730469 556.335938 C 1297.085938 553.835938 1296.042969 550.085938 1292.394531 550.1875 C 1263.519531 551.125 1234.746094 552.585938 1205.976562 555.710938 C 1204.726562 555.191406 1203.058594 555.605469 1202.535156 557.378906 C 1197.117188 575.195312 1191.695312 593.113281 1187.214844 611.136719 C 1132.902344 608.742188 1079.113281 599.15625 1026.261719 586.238281 C 961.320312 570.402344 897.628906 549.875 833.832031 530.082031 C 773.476562 511.433594 712.597656 493.929688 650.46875 482.261719 C 650.886719 474.96875 651.304688 467.570312 651.617188 460.277344 C 651.824219 455.378906 652.449219 450.171875 652.660156 445.066406 C 652.972656 445.273438 653.285156 445.378906 653.597656 445.585938 C 654.640625 446.109375 655.785156 446.628906 656.933594 446.941406 C 661.3125 448.398438 666.003906 449.023438 670.589844 448.609375 C 674.550781 448.296875 678.40625 447.148438 681.640625 444.855469 C 687.582031 440.585938 688.625 433.5 683.515625 428.1875 C 677.363281 421.832031 667.566406 422.144531 659.644531 423.707031 C 655.058594 424.644531 649.742188 426.832031 647.238281 430.480469 C 645.988281 430.792969 644.839844 431.730469 644.527344 433.085938 C 642.652344 441.417969 643.382812 450.796875 643.070312 459.339844 C 642.757812 466.421875 642.445312 473.507812 642.027344 480.59375 C 641.921875 480.59375 641.816406 480.59375 641.714844 480.488281 C 617.007812 476.007812 591.992188 472.675781 566.867188 470.589844 C 566.972656 467.050781 567.078125 463.609375 567.078125 460.070312 C 567.078125 459.441406 567.078125 458.714844 567.078125 458.089844 C 568.121094 458.816406 569.160156 459.546875 570.308594 460.070312 C 571.351562 460.589844 572.496094 461.109375 573.644531 461.421875 C 578.023438 462.882812 582.714844 463.507812 587.300781 463.089844 C 591.261719 462.777344 595.117188 461.632812 598.347656 459.339844 C 604.292969 455.066406 605.332031 447.984375 600.226562 442.667969 C 594.074219 436.3125 584.277344 436.625 576.355469 438.191406 C 572.914062 438.917969 569.160156 440.273438 566.347656 442.355469 C 564.785156 443.605469 563.53125 445.066406 563.011719 446.941406 C 562.699219 447.148438 562.488281 447.359375 562.28125 447.671875 C 560.40625 451.316406 560.613281 454.964844 560.507812 458.921875 C 560.40625 462.570312 560.195312 466.214844 560.09375 469.964844 C 522.667969 467.257812 485.039062 467.777344 447.824219 472.464844 C 439.796875 473.507812 431.667969 474.65625 423.640625 476.007812 C 417.175781 477.15625 420.09375 486.53125 426.351562 485.699219 C 470.445312 479.550781 515.058594 479.757812 559.257812 484.34375 C 558.738281 490.699219 558.214844 496.949219 557.589844 503.304688 C 555.820312 522.789062 554.777344 542.375 552.691406 561.859375 C 552.585938 562.691406 552.691406 563.316406 553.003906 563.835938 C 552.273438 566.441406 554.359375 569.984375 558.007812 569.253906 C 586.152344 563.109375 613.984375 556.542969 641.609375 548.210938 C 642.964844 548.3125 644.527344 547.480469 644.738281 545.710938 C 646.507812 530.289062 648.175781 514.871094 649.324219 499.347656 C 704.46875 511.640625 758.570312 528.308594 812.460938 545.292969 C 876.78125 565.609375 940.679688 587.277344 1006.039062 604.054688 C 1063.582031 618.847656 1122.375 629.996094 1181.6875 633.121094 C 1181.167969 635.414062 1180.644531 637.601562 1180.019531 639.894531 C 1178.875 644.789062 1177.308594 649.894531 1176.164062 655 C 1175.953125 654.792969 1175.640625 654.582031 1175.433594 654.375 C 1174.496094 653.644531 1173.453125 653.019531 1172.410156 652.394531 C 1168.34375 650.101562 1163.863281 648.75 1159.277344 648.332031 C 1155.316406 647.914062 1151.355469 648.332031 1147.707031 650 C 1141.136719 653.019531 1138.742188 659.898438 1142.804688 666.042969 C 1147.601562 673.335938 1157.398438 674.898438 1165.53125 674.796875 C 1170.117188 674.691406 1175.746094 673.648438 1178.875 670.523438 C 1180.125 670.523438 1181.375 670.003906 1182 668.542969 C 1185.441406 660.730469 1186.378906 651.457031 1188.253906 643.121094 C 1188.984375 639.894531 1189.714844 636.765625 1190.445312 633.539062 C 1194.613281 633.746094 1198.785156 633.851562 1203.058594 633.851562 C 1224.53125 634.265625 1246.421875 633.539062 1268.210938 631.351562 C 1267.582031 634.476562 1266.957031 637.601562 1266.332031 640.621094 C 1265.289062 645.207031 1264.351562 649.894531 1263.414062 654.480469 C 1263.207031 655.417969 1262.996094 656.457031 1262.789062 657.394531 C 1261.953125 656.457031 1261.015625 655.625 1259.972656 654.894531 C 1259.035156 654.167969 1257.992188 653.542969 1256.949219 652.917969 C 1252.886719 650.625 1248.402344 649.269531 1243.816406 648.851562 C 1239.855469 648.4375 1235.894531 648.851562 1232.246094 650.519531 C 1225.679688 653.542969 1223.28125 660.417969 1227.347656 666.566406 C 1232.140625 673.859375 1241.941406 675.421875 1250.070312 675.316406 C 1253.511719 675.210938 1257.578125 674.585938 1260.597656 673.023438 C 1262.371094 672.085938 1263.933594 670.730469 1264.769531 669.066406 C 1265.1875 668.960938 1265.5 668.648438 1265.707031 668.335938 C 1268.3125 664.898438 1268.730469 660.523438 1269.667969 656.355469 C 1270.710938 651.769531 1271.753906 647.1875 1272.796875 642.496094 C 1273.734375 638.433594 1274.777344 634.476562 1275.921875 630.515625 C 1320.746094 625.203125 1364.839844 613.222656 1403.515625 590.507812 C 1411.230469 585.925781 1418.214844 581.027344 1424.886719 574.984375 C 1433.121094 568.109375 1422.695312 556.230469 1413.625 560.816406 Z M 639.523438 542.375 C 613.359375 547.6875 587.507812 554.042969 561.65625 560.296875 C 562.386719 553.105469 563.21875 545.8125 563.949219 538.625 C 576.5625 537.164062 589.070312 534.976562 601.476562 532.476562 C 614.507812 529.871094 627.640625 527.058594 640.152344 522.789062 C 639.941406 529.351562 639.734375 535.8125 639.523438 542.375 Z M 640.464844 515.496094 C 626.910156 517.476562 613.464844 520.808594 600.015625 523.414062 C 588.238281 525.707031 576.355469 527.894531 564.679688 530.394531 C 565.410156 521.539062 566.035156 512.578125 566.347656 503.722656 C 566.554688 497.679688 566.554688 491.636719 566.660156 485.488281 C 584.796875 487.574219 602.832031 490.386719 620.65625 493.71875 C 627.539062 494.96875 634.3125 496.429688 641.191406 497.886719 C 640.878906 503.722656 640.671875 509.660156 640.464844 515.496094 Z M 1195.863281 611.660156 C 1197.84375 603.324219 1199.722656 594.988281 1201.597656 586.652344 C 1227.449219 585.089844 1253.300781 584.675781 1279.15625 584.882812 C 1276.964844 592.695312 1274.878906 600.613281 1273.109375 608.53125 C 1255.59375 610.617188 1237.980469 611.660156 1220.257812 611.867188 C 1212.023438 611.972656 1203.890625 611.867188 1195.863281 611.660156 Z M 1195.863281 611.660156 " fill-opacity="1" fill-rule="nonzero"/></g></svg>